<svg width="34" height="31" viewBox="0 0 34 31" fill="none" xmlns="http://www.w3.org/2000/svg">
<g clip-path="url(#clip0_12_17)">
<path d="M24.9517 20.0417C27.0093 17.4817 27.9309 14.3076 27.5321 11.1547C27.1332 8.0017 25.4434 5.10229 22.8007 3.03651C20.1579 0.970729 16.7571 -0.109073 13.2787 0.0131308C9.80026 0.135335 6.50069 1.45053 4.04012 3.6956C1.57955 5.94067 0.139432 8.95004 0.00789024 12.1216C-0.123651 15.2933 1.06308 18.3932 3.33067 20.8013C5.59825 23.2094 8.77946 24.748 12.2378 25.1094C15.6962 25.4708 19.1767 24.6282 21.983 22.7503H21.9809C22.0447 22.8278 22.1127 22.9014 22.1892 22.9731L30.3704 30.4325C30.7689 30.7961 31.3094 31.0004 31.8731 31.0006C32.4368 31.0008 32.9775 30.7968 33.3762 30.4335C33.775 30.0702 33.9991 29.5773 33.9993 29.0634C33.9995 28.5494 33.7757 28.0564 33.3773 27.6929L25.196 20.2335C25.1201 20.1634 25.0384 20.0986 24.9517 20.0398V20.0417ZM25.4999 12.5939C25.4999 13.9933 25.1976 15.379 24.6103 16.6719C24.0229 17.9648 23.162 19.1395 22.0767 20.1291C20.9914 21.1186 19.703 21.9035 18.285 22.439C16.867 22.9746 15.3472 23.2502 13.8124 23.2502C12.2776 23.2502 10.7578 22.9746 9.33981 22.439C7.92182 21.9035 6.6334 21.1186 5.54811 20.1291C4.46283 19.1395 3.60193 17.9648 3.01458 16.6719C2.42723 15.379 2.12492 13.9933 2.12492 12.5939C2.12492 9.76773 3.35628 7.05727 5.54811 5.05884C7.73994 3.0604 10.7127 1.9377 13.8124 1.9377C16.9121 1.9377 19.8849 3.0604 22.0767 5.05884C24.2686 7.05727 25.4999 9.76773 25.4999 12.5939Z" fill="black"/>
</g>
<defs>
<clipPath id="clip0_12_17">
<rect width="34" height="31" fill="white"/>
</clipPath>
</defs>
</svg>
